<svg width="64" height="64" viewBox="0 0 64 64" fill="none" xmlns="http://www.w3.org/2000/svg">
<g clip-path="url(#clip0_213_412)">
<path d="M26.7768 34.8549C25.1375 38.6874 23.5376 42.3152 22.0363 45.9828C21.1563 48.1324 19.6651 49.3424 17.3049 49.393C14.8783 49.4447 13.2401 48.2914 12.2282 46.1248C9.36557 39.9907 6.46069 33.8765 3.57997 27.7513C2.30424 25.0394 3.16211 22.7516 5.86763 21.5983C8.48656 20.4818 11.0098 21.4702 12.1073 24.0738C13.7385 27.943 15.3475 31.8212 16.9676 35.6943C17.0955 35.9993 17.2354 36.2983 17.4308 36.7394C17.6412 36.2943 17.8084 35.9675 17.9523 35.6318C19.5684 31.8639 21.2086 28.1069 22.7814 24.3222C23.604 22.3414 25.0519 21.2427 27.1845 21.2397C29.3202 21.2367 30.755 22.3553 31.5937 24.3202C33.2299 28.1516 34.9376 31.9523 36.6171 35.7659C36.749 36.0649 36.89 36.3609 37.1065 36.8298C37.7297 35.3079 38.2916 33.95 38.8433 32.5881C40.0194 29.6854 41.1673 26.7708 42.3715 23.8801C43.173 21.9549 44.7971 20.9993 46.7626 21.194C48.7733 21.3927 50.5434 22.9016 50.9462 24.7275C51.1365 25.5877 50.9643 26.3983 50.6069 27.1583C47.5207 33.7036 44.4417 40.252 41.2992 46.7705C40.399 48.639 38.7175 49.4238 36.6544 49.396C34.6124 49.3682 33.0648 48.4732 32.2019 46.6374C30.5435 43.1069 28.9466 39.5477 27.3235 36.0003C27.1715 35.6685 27.0093 35.3417 26.7778 34.8549H26.7768Z" fill="#FE0568"/>
<path d="M60.858 17.7332C58.8764 24.953 56.8727 32.166 54.9204 39.3928C54.6676 40.3275 54.1743 40.6653 53.265 40.5818C51.3892 40.3583 49.5103 40.1517 47.6385 39.9014C47.1421 39.8358 46.8139 39.652 46.6346 39.3312C48.1631 36.1136 49.6755 32.903 51.1616 29.7511L52.0688 27.8269C52.6156 26.6636 52.7676 25.5064 52.5209 24.3898C52.0094 22.0693 49.9483 20.1739 47.5056 19.6981C47.5711 18.4782 47.6375 17.2593 47.704 16.0395C47.7795 14.6517 48.6293 13.864 50.0248 14.0189C53.0767 14.3557 56.1236 14.7352 59.1664 15.1434C60.7704 15.359 61.2829 16.1835 60.858 17.7332Z" fill="#00B2CD"/>
<path d="M50.6058 49.9793C49.7832 49.8869 48.443 49.7567 47.1079 49.5809C45.7395 49.4001 44.7799 48.3402 44.8403 46.9713C44.8947 45.7475 45.0347 44.5197 45.2421 43.3117C45.4616 42.0312 46.6447 41.1452 47.9476 41.2524C49.4227 41.3746 50.8968 41.5455 52.3608 41.7591C53.7604 41.9637 54.6354 43.0018 54.584 44.3975C54.5448 45.4574 54.437 46.5193 54.285 47.5693C54.0292 49.3395 52.9609 50.1412 50.6058 49.9793Z" fill="#00B2CD"/>
</g>
<defs>
<clipPath id="clip0_213_412">
<rect width="58" height="36" fill="white" transform="translate(3 14)"/>
</clipPath>
</defs>
</svg>
