<?xml version="1.0" encoding="UTF-8"?>
<svg id="Camada_1" xmlns="http://www.w3.org/2000/svg" version="1.1" viewBox="0 0 1236 520">
  <!-- Generator: Adobe Illustrator 29.5.0, SVG Export Plug-In . SVG Version: 2.1.0 Build 137)  -->
  <defs>
    <style>
      .st0 {
        fill: #fe0568;
      }

      .st1 {
        fill: #00b2cd;
      }
    </style>
  </defs>
  <g>
    <path class="st0" d="M269.17,236.37c-16.28,38.58-32.17,75.1-47.08,112.02-8.74,21.64-23.55,33.82-46.99,34.33-24.1.52-40.37-11.09-50.42-32.9-28.43-61.75-57.28-123.3-85.89-184.96-12.67-27.3-4.15-50.33,22.72-61.94,26.01-11.24,51.07-1.29,61.97,24.92,16.2,38.95,32.18,77.99,48.27,116.98,1.27,3.07,2.66,6.08,4.6,10.52,2.09-4.48,3.75-7.77,5.18-11.15,16.05-37.93,32.34-75.75,47.96-113.85,8.17-19.94,22.55-31,43.73-31.03,21.21-.03,35.46,11.23,43.79,31.01,16.25,38.57,33.21,76.83,49.89,115.22,1.31,3.01,2.71,5.99,4.86,10.71,6.19-15.32,11.77-28.99,17.25-42.7,11.68-29.22,23.08-58.56,35.04-87.66,7.96-19.38,24.09-29,43.61-27.04,19.97,2,37.55,17.19,41.55,35.57,1.89,8.66.18,16.82-3.37,24.47-30.65,65.89-61.23,131.81-92.44,197.43-8.94,18.81-25.64,26.71-46.13,26.43-20.28-.28-35.65-9.29-44.22-27.77-16.47-35.54-32.33-71.37-48.45-107.08-1.51-3.34-3.12-6.63-5.42-11.53Z"/>
    <path class="st0" d="M696.63,343.01c-15.29,21.16-33.44,34.33-57.04,38.4-24.92,4.3-49.66,2.87-72.99-7.52-32.21-14.34-44.99-42.23-50.32-74.91-3.47-21.33-2.21-42.83-2.32-64.27-.15-31.19-.33-62.39.21-93.57.41-23.94,17.4-40.28,42.57-42.31,29.15-2.35,50.32,10.4,55.38,33.75,1.12,5.17,1.06,10.66,1.07,16.01.08,37.9.04,75.8.05,113.7,0,3.02-.15,6.06.13,9.05,1.33,14.14,4.12,27.85,19.46,33.47,16.42,6.02,31.88,3.22,44.97-8.57,11.07-9.98,15.8-23.12,15.87-37.82.18-36.56.27-73.11.09-109.67-.09-19.1,4.93-35.6,23.42-44.24,19.77-9.24,39.89-8.79,58.57,3.13,12.96,8.27,17.82,21.57,17.86,36.38.18,64.39.3,128.79-.03,193.18-.11,20.82-11.04,35.73-30.07,41.82-20.76,6.64-40.5,5.22-56.92-11.07-6.13-6.08-8.77-14.03-9.97-24.95Z"/>
    <path class="st0" d="M1045.14,260.37c23.16.49,46.33.17,69.5.17s44.31.12,66.47-.04c17.39-.12,25.64-7.71,25.87-24.91,1.06-76.79-43.34-133.78-121.61-138.17-59.8-3.35-114.83,30.58-135.38,86.19-10.84,29.32-12.65,59.56-6.71,90.14,9.64,49.59,38.44,83.28,86.04,100.09,32.02,11.31,65.09,12.24,98.31,5.79,18.8-3.64,37.12-9.07,54.4-17.48,21.03-10.24,28.99-29.67,21.23-51.18-5.34-14.82-16.43-21.48-32.11-19.54-8.78,1.08-16.84,4.41-24.95,7.53-19.55,7.52-39.31,13.18-60.69,11.56-26.55-2.01-41.95-15.12-47.58-40.92-1.48-6.8-.64-9.4,7.21-9.23ZM1036.24,208.82c4.81-31.9,24.04-49.14,56.46-42.87,17.72,3.42,32.04,25.34,30.45,43.6-.45,5.08-3.52,3.97-6.23,3.99-12.74.1-25.48.04-38.23.04s-24.81-.04-37.22.03c-3.39.02-5.92-.2-5.23-4.79Z"/>
    <path class="st1" d="M892.09,294.03c-18.63-2.26-37.29-4.34-55.88-6.86-8.58-1.16-12.12-5.89-11.58-15.3,4.34-74.96,8.19-149.94,12.23-224.91.75-13.97,9.19-21.9,23.05-20.34,30.31,3.39,60.57,7.21,90.79,11.32,15.93,2.17,21.02,10.47,16.8,26.07-19.68,72.68-39.58,145.29-58.97,218.04-2.51,9.41-7.41,12.81-16.44,11.97Z"/>
    <path class="st1" d="M865.69,388.62c-8.17-.93-21.48-2.24-34.74-4.01-13.59-1.82-23.12-12.49-22.52-26.27.54-12.32,1.93-24.68,3.99-36.84,2.18-12.89,13.93-21.81,26.87-20.73,14.65,1.23,29.29,2.95,43.83,5.1,13.9,2.06,22.59,12.51,22.08,26.56-.39,10.67-1.46,21.36-2.97,31.93-2.54,17.82-13.15,25.89-36.54,24.26Z"/>
  </g>
  <g>
    <path d="M67.45,479.21h-27.86l-5.95,13.78h-4.64l22.49-51.66h4.06l22.42,51.66h-4.64l-5.88-13.78ZM65.71,475.29l-12.19-28.51-12.26,28.51h24.45Z"/>
    <path d="M268.2,466.51v23.58c-1.89,1.02-4.47,1.85-7.76,2.5-3.29.65-6.6.98-9.94.98-5.03,0-9.36-1.05-12.99-3.16-3.63-2.1-6.4-5.14-8.31-9.1-1.91-3.97-2.87-8.71-2.87-14.22s.95-10.18,2.87-14.15c1.91-3.97,4.65-6.99,8.23-9.07,3.58-2.08,7.81-3.12,12.7-3.12,7.3,0,13.16,2.25,17.56,6.75l-1.89,3.55c-2.47-2.22-4.95-3.83-7.44-4.82-2.49-.99-5.26-1.49-8.31-1.49-6.09,0-10.8,1.93-14.11,5.8-3.31,3.87-4.97,9.38-4.97,16.54s1.68,12.89,5.04,16.76c3.36,3.87,8.21,5.8,14.55,5.8,4.88,0,9.41-.8,13.57-2.39v-16.91h-13.64v-3.84h17.7Z"/>
    <path d="M424.54,441.33h31.85v3.84h-27.42v19.59h25.97v3.99h-25.97v20.39h27.42v3.85h-31.85v-51.66ZM431.29,436.91l8.42-10.96h3.41l8.42,10.96h-4.57l-5.51-7.91-5.59,7.91h-4.57Z"/>
    <path d="M651.04,441.33v51.66h-3.48l-32.79-44.04v44.04h-4.21v-51.66h3.56l32.72,44.04v-44.04h4.21Z"/>
    <path d="M816.97,490.41c-3.53-2.1-6.24-5.15-8.13-9.14-1.89-3.99-2.83-8.72-2.83-14.18s.94-10.11,2.83-14.07c1.89-3.97,4.59-7,8.13-9.11,3.53-2.1,7.69-3.16,12.48-3.16,3.58,0,6.86.57,9.83,1.7,2.98,1.14,5.55,2.82,7.73,5.04l-1.89,3.55c-2.47-2.22-4.93-3.83-7.4-4.82-2.47-.99-5.22-1.49-8.27-1.49-5.95,0-10.57,1.95-13.86,5.84-3.29,3.89-4.93,9.4-4.93,16.51s1.63,12.7,4.9,16.61c3.27,3.92,7.9,5.88,13.89,5.88,3.05,0,5.8-.49,8.27-1.49,2.47-.99,4.93-2.6,7.4-4.83l1.89,3.56c-2.18,2.22-4.75,3.9-7.73,5.04-2.97,1.14-6.25,1.7-9.83,1.7-4.79,0-8.95-1.05-12.48-3.16Z"/>
    <path d="M1001.17,441.33h4.5v51.66h-4.5v-51.66Z"/>
    <path d="M1196.26,479.21h-27.86l-5.95,13.78h-4.64l22.49-51.66h4.06l22.42,51.66h-4.64l-5.88-13.78ZM1194.52,475.29l-12.19-28.51-12.26,28.51h24.45Z"/>
  </g>
</svg>